PathFileType	4	(X/Y/Z)	C:\Users\WrightLab\Desktop\Jo\P5V122.trc
DataRate	CameraRate	NumFrames	NumMarkers	Units	OrigDataRate	OrigDataStartFrame	OrigNumFrames
100.00	100.00	       23	19	mm	100.00	498	       569
Frame#	Time	Headset_Front			Headset_Back			Headset_Left			Headset_Right			Left_Shoulder			Right_Shoulder			Sternum			C7			Left Elbow			Right Elbow			Left Wrist			Right Wrist			Left ASIS			Right ASIS			S2			Left Knee			Right Knee			Left Ankle			Right Ankle			
		X1	Y1	Z1	X2	Y2	Z2	X3	Y3	Z3	X4	Y4	Z4	X5	Y5	Z5	X6	Y6	Z6	X7	Y7	Z7	X8	Y8	Z8	X9	Y9	Z9	X10	Y10	Z10	X11	Y11	Z11	X12	Y12	Z12	X13	Y13	Z13	X14	Y14	Z14	X15	Y15	Z15	X16	Y16	Z16	X17	Y17	Z17	X18	Y18	Z18	X19	Y19	Z19	

498	4.970																															-368.29352	1003.49426	2236.44141	-57.38523	977.60138	1719.44849										-321.92056	545.82556	2147.69141				-329.45044	148.00113	2231.08936	101.31493	163.40009	1859.13965	
499	4.980																															-377.93723	1003.15350	2234.49316	-53.76907	977.52374	1722.92822										-327.17642	544.95233	2146.09131				-329.63397	147.45354	2232.04541	100.81388	166.02727	1857.75671	
500	4.990																															-387.29382	1002.66791	2232.20996	-49.82311	978.37500	1728.80457										-331.89194	544.72992	2145.19727				-330.29922	147.60049	2232.23755	100.69109	167.73477	1860.61169	
501	5.000																															-397.51379	1002.78900	2230.31055	-46.68461	980.32550	1730.93335										-335.56635	545.33130	2145.45410				-330.66348	147.00674	2232.11377	100.29037	169.96600	1860.39404	
502	5.010																															-407.25873	1003.23651	2227.99854	-42.98151	980.73804	1736.96082										-339.04437	546.73413	2144.03271				-331.58502	145.69183	2232.44238	100.49143	172.54977	1864.37634	
503	5.020																															-415.71921	1004.24109	2225.37866	-39.50490	983.11017	1739.65625										-342.09473	548.40033	2144.22437				-332.50580	145.08733	2232.67212	100.66679	174.47600	1869.64978	
504	5.030																															-424.65570	1005.01611	2222.39966	-36.26893	984.72064	1745.64648										-344.60110	549.80957	2145.13501				-333.48480	145.24162	2233.59619	100.92255	177.07278	1873.63159	
505	5.040																															-433.59637	1006.28326	2219.82910	-32.27082	985.78448	1753.28198										-346.71283	551.15680	2146.73267				-333.83072	145.35292	2233.73267	101.59677	178.63947	1880.10645	
506	5.050																															-441.59171	1007.44415	2216.21753	-29.28967	988.01056	1755.04407										-348.61862	552.30701	2148.53516				-334.14899	145.19687	2235.12378	101.24447	183.44724	1882.87585	
507	5.060																															-450.10736	1008.92377	2213.80103	-25.99960	989.93970	1760.56128										-350.30890	553.33698	2150.45361				-333.95096	144.74147	2234.91919	102.70583	186.65279	1888.32874	
508	5.070																															-457.89948	1010.23358	2210.64917	-22.91201	992.63293	1767.46704										-352.26941	554.09631	2153.07642				-333.79053	144.40800	2235.05127	102.68961	188.56879	1898.05688	
509	5.080																															-466.13657	1011.22876	2207.99854	-19.82017	994.34979	1772.10583										-354.04614	553.87152	2155.39844				-333.73697	144.45883	2235.18726	102.28263	190.96216	1907.41748	
510	5.090																															-473.32040	1012.43140	2204.68359	-16.63813	996.27136	1776.61218										-355.88263	554.04449	2157.15967				-333.70514	144.47546	2235.27466	100.24931	193.82620	1916.38550	
511	5.100																															-480.72739	1013.41492	2200.93701	-13.89815	997.98010	1781.74768										-356.78360	553.39618	2160.12280				-333.80060	144.47623	2235.79370	99.45724	194.81213	1926.38733	
512	5.110																															-488.36795	1014.47034	2197.76318	-10.93166	999.06891	1789.63245										-358.39401	553.23572	2161.79565				-333.94324	144.22195	2236.07397	98.34716	196.58502	1938.78137	
513	5.120																															-494.83630	1015.49261	2193.81787	-8.49445	1000.92108	1795.37048										-359.84686	553.27710	2162.65894				-333.99609	143.78947	2236.19946	95.94680	198.00426	1948.57532	
514	5.130																															-501.15851	1015.93640	2190.22900	-6.05786	1001.47723	1799.66150										-360.55664	553.38318	2163.41113				-333.91479	143.09641	2235.93506	94.15135	198.14372	1959.34473	
515	5.140																															-508.70456	1016.90814	2187.27734	-3.52912	1003.37292	1806.48083										-361.80252	554.05469	2162.93872				-334.22800	143.06053	2236.25146	90.67358	199.42703	1972.67542	
516	5.150																															-515.11621	1017.85107	2182.91553	-1.15145	1003.18994	1811.76624										-363.07953	554.27289	2162.27368				-334.32925	142.79282	2236.07910	86.92970	199.23615	1984.08997	
517	5.160																															-520.75000	1018.40869	2179.41919	1.10545	1003.45001	1819.11243										-364.47870	553.56335	2161.43164				-334.45267	142.47891	2235.86304	82.59565	198.30565	1995.18152	
518	5.170																															-526.59576	1019.09540	2175.74243	3.13807	1004.66443	1823.94617										-366.20435	553.33301	2159.03589				-334.76459	142.26810	2236.14233	78.43597	197.89444	2007.86218	
519	5.180																															-532.00293	1019.38354	2172.02075	5.34427	1003.96899	1831.15637										-365.61850	551.89276	2153.54785				-334.89117	141.96085	2235.91357	72.81069	196.86699	2018.89490	
520	5.190																															-537.31335	1019.43109	2167.53003													-365.75473	550.43927	2150.07617				-335.11215	141.29463	2235.79517	66.68256	196.37300	2029.44385	
